<?xml version="1.0" encoding="UTF-8"?>
<!DOCTYPE svg PUBLIC "-//W3C//DTD SVG 1.1//EN" "http://www.w3.org/Graphics/SVG/1.1/DTD/svg11.dtd">
<svg xmlns="http://www.w3.org/2000/svg" version="1.1" width="2384px" height="448px" style="shape-rendering:geometricPrecision; text-rendering:geometricPrecision; image-rendering:optimizeQuality; fill-rule:evenodd; clip-rule:evenodd" xmlns:xlink="http://www.w3.org/1999/xlink">
<g><path style="opacity:0.995" fill="#000000" d="M -0.5,-0.5 C 794.167,-0.5 1588.83,-0.5 2383.5,-0.5C 2383.5,148.833 2383.5,298.167 2383.5,447.5C 1588.83,447.5 794.167,447.5 -0.5,447.5C -0.5,298.167 -0.5,148.833 -0.5,-0.5 Z M 1338.5,61.5 C 1354.44,60.8608 1370.11,62.5275 1385.5,66.5C 1384.33,89.8982 1381.83,113.232 1378,136.5C 1375.23,115.492 1367.06,96.9917 1353.5,81C 1334.71,67.1595 1317.54,68.9928 1302,86.5C 1293.6,99.7002 1287.93,114.034 1285,129.5C 1276.91,173.067 1277.91,216.4 1288,259.5C 1292.06,274.141 1299.56,286.641 1310.5,297C 1323.72,306.47 1338.38,309.97 1354.5,307.5C 1354.67,263.499 1354.5,219.499 1354,175.5C 1352.54,171.74 1350.04,168.907 1346.5,167C 1365.83,166.333 1385.17,166.333 1404.5,167C 1400.61,169.222 1397.78,172.388 1396,176.5C 1395.78,228.168 1395.78,279.835 1396,331.5C 1390.89,323.053 1383.56,317.72 1374,315.5C 1343.97,333.168 1313.47,334.001 1282.5,318C 1264.03,305.173 1251.19,288.007 1244,266.5C 1231.85,226.415 1230.85,186.082 1241,145.5C 1254.66,95.3253 1287.16,67.3253 1338.5,61.5 Z M 1943.5,280.5 C 1936.02,303.48 1920.69,318.647 1897.5,326C 1849.77,336.716 1815.27,320.216 1794,276.5C 1774.83,226.182 1774.83,175.848 1794,125.5C 1814.01,82.9769 1847.68,61.6436 1895,61.5C 1907.41,61.5571 1919.58,63.2237 1931.5,66.5C 1930.33,89.8982 1927.83,113.232 1924,136.5C 1921.31,116.803 1913.98,99.1368 1902,83.5C 1883.05,66.8238 1865.05,67.8238 1848,86.5C 1837.3,103.253 1830.97,121.586 1829,141.5C 1823.2,181.172 1824.87,220.506 1834,259.5C 1849.17,305.783 1879.01,318.949 1923.5,299C 1930.99,293.674 1937.66,287.508 1943.5,280.5 Z M 444.5,66.5 C 463.338,65.1723 482.338,65.1723 501.5,66.5C 518.307,110.255 535.307,153.922 552.5,197.5C 569.285,153.983 585.785,110.317 602,66.5C 619.426,65.3418 636.926,65.1751 654.5,66C 651.238,68.592 648.738,71.7587 647,75.5C 646.333,152.167 646.333,228.833 647,305.5C 649.53,314.699 655.03,321.532 663.5,326C 637.5,326.667 611.5,326.667 585.5,326C 594.249,321.339 599.749,314.172 602,304.5C 602.667,234.833 602.667,165.167 602,95.5C 579.408,155.695 557.074,216.028 535,276.5C 512.246,215.897 488.912,155.564 465,95.5C 464.333,165.167 464.333,234.833 465,304.5C 467.736,313.812 473.236,320.979 481.5,326C 466.833,326.667 452.167,326.667 437.5,326C 446.249,321.339 451.749,314.172 454,304.5C 454.667,229.5 454.667,154.5 454,79.5C 452.479,73.8336 449.313,69.5003 444.5,66.5 Z M 1418.5,66.5 C 1466.66,65.5012 1515,65.1678 1563.5,65.5C 1563.67,88.8357 1563.5,112.169 1563,135.5C 1556.93,115.171 1545.76,98.338 1529.5,85C 1522.92,80.2489 1515.59,77.2489 1507.5,76C 1497.84,75.5002 1488.17,75.3335 1478.5,75.5C 1478.5,101.833 1478.5,128.167 1478.5,154.5C 1489.9,154.909 1501.23,154.409 1512.5,153C 1520.07,150.762 1525.91,146.262 1530,139.5C 1530.67,153.167 1530.67,166.833 1530,180.5C 1525.91,173.738 1520.07,169.238 1512.5,167C 1501.22,165.617 1489.89,165.117 1478.5,165.5C 1478.5,215.833 1478.5,266.167 1478.5,316.5C 1493.17,316.667 1507.84,316.5 1522.5,316C 1540.13,314.604 1553.63,306.438 1563,291.5C 1569.16,280.36 1574.16,268.693 1578,256.5C 1578.5,279.831 1578.67,303.164 1578.5,326.5C 1524.83,326.667 1471.17,326.5 1417.5,326C 1425.94,321.556 1431.44,314.723 1434,305.5C 1434.67,232.5 1434.67,159.5 1434,86.5C 1431.62,77.6225 1426.45,70.9558 1418.5,66.5 Z M 1596.5,66.5 C 1615,65.1724 1633.67,65.1724 1652.5,66.5C 1682.87,119.705 1713.03,173.038 1743,226.5C 1743.67,179.167 1743.67,131.833 1743,84.5C 1740.42,76.5865 1735.59,70.4199 1728.5,66C 1742.5,65.3333 1756.5,65.3333 1770.5,66C 1762.32,70.5181 1757.15,77.3514 1755,86.5C 1753.91,166.496 1753.41,246.496 1753.5,326.5C 1751.02,326.677 1749.19,325.677 1748,323.5C 1704.59,247.004 1660.92,170.67 1617,94.5C 1616.33,164.5 1616.33,234.5 1617,304.5C 1619.74,313.812 1625.24,320.979 1633.5,326C 1618.83,326.667 1604.17,326.667 1589.5,326C 1598.25,321.339 1603.75,314.172 1606,304.5C 1606.67,229.5 1606.67,154.5 1606,79.5C 1604.48,73.8336 1601.31,69.5003 1596.5,66.5 Z M 1025.5,84.5 C 1028.83,84.5 1032.17,84.5 1035.5,84.5C 1035.5,102.833 1035.5,121.167 1035.5,139.5C 1050.17,139.5 1064.83,139.5 1079.5,139.5C 1079.5,143.167 1079.5,146.833 1079.5,150.5C 1064.83,150.5 1050.17,150.5 1035.5,150.5C 1035.25,190.51 1035.75,230.51 1037,270.5C 1037.2,284.822 1040.2,298.488 1046,311.5C 1051.64,319.521 1059.14,321.688 1068.5,318C 1074.78,314.778 1079.94,310.278 1084,304.5C 1093.17,291.167 1100.5,276.834 1106,261.5C 1107.67,278.147 1108.67,294.813 1109,311.5C 1087.49,328.506 1063.33,333.673 1036.5,327C 1017.95,322.123 1005.45,310.623 999,292.5C 995.978,283.392 993.978,274.058 993,264.5C 991.651,226.514 991.151,188.514 991.5,150.5C 985.167,150.5 978.833,150.5 972.5,150.5C 972.5,146.833 972.5,143.167 972.5,139.5C 982.506,139.666 992.506,139.5 1002.5,139C 1006.24,137.71 1009.41,135.543 1012,132.5C 1018.99,117.217 1023.49,101.217 1025.5,84.5 Z M 739.5,136.5 C 779.041,134.218 804.874,151.885 817,189.5C 820.418,201.261 821.918,213.261 821.5,225.5C 786.167,225.5 750.833,225.5 715.5,225.5C 715.116,245.458 717.282,265.125 722,284.5C 724.908,299.049 732.741,309.882 745.5,317C 761.256,322.116 774.756,318.616 786,306.5C 797.252,292.002 805.919,276.002 812,258.5C 813.432,275.726 814.932,292.893 816.5,310C 792.473,327.671 765.806,333.337 736.5,327C 710.243,319.745 691.743,303.578 681,278.5C 668.078,246.02 668.412,213.687 682,181.5C 693.491,156.49 712.658,141.49 739.5,136.5 Z M 935.5,136.5 C 942.563,136.212 949.563,136.712 956.5,138C 960.805,138.903 964.639,140.737 968,143.5C 968.667,158.833 968.667,174.167 968,189.5C 963.107,175.954 954.607,165.454 942.5,158C 930.876,153.632 920.209,155.298 910.5,163C 903.19,169.972 897.023,177.805 892,186.5C 891.333,226.167 891.333,265.833 892,305.5C 894.916,313.853 900.082,320.353 907.5,325C 882.167,325.667 856.833,325.667 831.5,325C 839.8,320.042 844.967,312.875 847,303.5C 847.667,256.167 847.667,208.833 847,161.5C 844.264,152.188 838.764,145.021 830.5,140C 850.831,139.5 871.164,139.333 891.5,139.5C 891.333,150.838 891.5,162.172 892,173.5C 898.432,163.831 905.932,154.998 914.5,147C 921.045,142.394 928.045,138.894 935.5,136.5 Z"/></g>
<g><path style="opacity:0.971" fill="#000000" d="M 747.5,146.5 C 758.934,146.418 766.767,151.752 771,162.5C 777.041,179.282 779.874,196.616 779.5,214.5C 758.5,214.5 737.5,214.5 716.5,214.5C 717.388,193.602 723.221,174.268 734,156.5C 737.579,151.731 742.079,148.397 747.5,146.5 Z"/></g>
</svg>
